<svg width="100%" viewBox="0 0 680 600" role="img" xmlns="http://www.w3.org/2000/svg">
<title>SHETRENGAW piece movement reference</title>
<desc>Movement diagrams for all six piece types. Each 5x5 grid shows the piece at center. Gold squares are squares the piece can reach. Red squares are capture-only. Dark gold squares are RAWDAW-only back-diagonal moves.</desc>
<defs>
  <style>
    .note { font-family:Georgia,serif; font-size:8.5px; fill:#a09070; text-anchor:middle; font-style:italic; }
    .leg  { font-family:Georgia,serif; font-size:9px;   fill:#a09070; dominant-baseline:central; }
    .hdr  { font-family:Georgia,serif; font-size:14px;  font-weight:bold; fill:#c9a84c; text-anchor:middle; }
    .ptitle { font-family:Georgia,serif; font-size:13px; font-weight:bold; fill:#c9a84c; text-anchor:middle; }
    .psub   { font-family:Georgia,serif; font-size:9px;  fill:#a09070; text-anchor:middle; }
    .pcode  { font-family:Georgia,serif; font-size:9px;  font-weight:bold; fill:#1a1209; text-anchor:middle; dominant-baseline:central; }
  </style>
</defs>

<!-- Background -->
<rect width="680" height="600" fill="#1a1209"/>
<text class="hdr" x="340" y="24">Piece Movement Reference — Porawt</text>

<!-- ═══════════════════════════════════════════════════════
     Grid geometry:
     Row 1 grids: top-left corners at x=60,290,520  y=62
     Row 2 grids: top-left corners at x=60,290,520  y=262
     Each grid: 5 cols × 5 rows, sq=24px
     Grid width = 120px. Grid center x = left + 60.
     Centers: col1=120, col2=350, col3=580
     ═══════════════════════════════════════════════════════ -->

<!-- ════════════ ROW 1 ════════════ -->

<!-- ─── RAWD — grid left=60, center-x=120 ─────────────── -->
<text class="ptitle" x="120" y="46">RAWD</text>
<text class="psub"   x="120" y="57">Igto: RAWDAW · Mawdige: RAJA</text>
<g fill="#2e2010" stroke="#1a1209" stroke-width="1">
  <rect x="60"  y="62"  width="24" height="24"/><rect x="84"  y="62"  width="24" height="24"/>
  <rect x="108" y="62"  width="24" height="24"/><rect x="132" y="62"  width="24" height="24"/>
  <rect x="156" y="62"  width="24" height="24"/>
  <rect x="60"  y="86"  width="24" height="24"/><rect x="84"  y="86"  width="24" height="24"/>
  <rect x="108" y="86"  width="24" height="24"/><rect x="132" y="86"  width="24" height="24"/>
  <rect x="156" y="86"  width="24" height="24"/>
  <rect x="60"  y="110" width="24" height="24"/><rect x="84"  y="110" width="24" height="24"/>
  <rect x="108" y="110" width="24" height="24"/><!-- piece -->
  <rect x="132" y="110" width="24" height="24"/><rect x="156" y="110" width="24" height="24"/>
  <rect x="60"  y="134" width="24" height="24"/><rect x="84"  y="134" width="24" height="24"/>
  <rect x="108" y="134" width="24" height="24"/><rect x="132" y="134" width="24" height="24"/>
  <rect x="156" y="134" width="24" height="24"/>
  <rect x="60"  y="158" width="24" height="24"/><rect x="84"  y="158" width="24" height="24"/>
  <rect x="108" y="158" width="24" height="24"/><rect x="132" y="158" width="24" height="24"/>
  <rect x="156" y="158" width="24" height="24"/>
</g>
<!-- RAWD: moves exactly 1 square. Both RAWDAW+RAJA: fwd, fwd-diag×2, sideways×2 -->
<!-- piece center = col2,row2. fwd=row1. -->
<!-- row1,col1=84,86  row1,col2=108,86  row1,col3=132,86 -->
<!-- row2,col1=60,110 (left 1sq)        row2,col3=156,110 (right 1sq) -->
<!-- REMOVED: row2,col0=36 and row2,col4=180 (those would be 2sq away) -->
<rect x="84"  y="86"  width="24" height="24" fill="#c9a84c"/><!-- fwd-diag L -->
<rect x="108" y="86"  width="24" height="24" fill="#c9a84c"/><!-- fwd -->
<rect x="132" y="86"  width="24" height="24" fill="#c9a84c"/><!-- fwd-diag R -->
<rect x="84"  y="110" width="24" height="24" fill="#c9a84c"/><!-- left 1sq -->
<rect x="132" y="110" width="24" height="24" fill="#c9a84c"/><!-- right 1sq -->
<!-- RAWDAW only: back-diag (1sq) -->
<rect x="84"  y="134" width="24" height="24" fill="#8b6914"/>
<rect x="132" y="134" width="24" height="24" fill="#8b6914"/>
<!-- piece -->
<rect x="108" y="110" width="24" height="24" fill="#b8860b"/>
<text class="pcode" x="120" y="122">RD</text>

<text class="note" x="120" y="196">↑ forward (Igto perspective)</text>
<text class="note" x="120" y="208">gold = both · dark gold = RAWDAW only</text>
<text class="note" x="120" y="220">RAJA cannot move back-diagonal</text>


<!-- ─── POR — grid left=290, center-x=350 ─────────────── -->
<text class="ptitle" x="350" y="46">POR</text>
<text class="psub"   x="350" y="57">Igto: PORLE · Mawdige: STENAPTI</text>
<g fill="#2e2010" stroke="#1a1209" stroke-width="1">
  <rect x="290" y="62"  width="24" height="24"/><rect x="314" y="62"  width="24" height="24"/>
  <rect x="338" y="62"  width="24" height="24"/><rect x="362" y="62"  width="24" height="24"/>
  <rect x="386" y="62"  width="24" height="24"/>
  <rect x="290" y="86"  width="24" height="24"/><rect x="314" y="86"  width="24" height="24"/>
  <rect x="338" y="86"  width="24" height="24"/><rect x="362" y="86"  width="24" height="24"/>
  <rect x="386" y="86"  width="24" height="24"/>
  <rect x="290" y="110" width="24" height="24"/><rect x="314" y="110" width="24" height="24"/>
  <rect x="338" y="110" width="24" height="24"/><!-- piece -->
  <rect x="362" y="110" width="24" height="24"/><rect x="386" y="110" width="24" height="24"/>
  <rect x="290" y="134" width="24" height="24"/><rect x="314" y="134" width="24" height="24"/>
  <rect x="338" y="134" width="24" height="24"/><rect x="362" y="134" width="24" height="24"/>
  <rect x="386" y="134" width="24" height="24"/>
  <rect x="290" y="158" width="24" height="24"/><rect x="314" y="158" width="24" height="24"/>
  <rect x="338" y="158" width="24" height="24"/><rect x="362" y="158" width="24" height="24"/>
  <rect x="386" y="158" width="24" height="24"/>
</g>
<rect x="290" y="62"  width="24" height="24" fill="#c9a84c"/>
<rect x="386" y="62"  width="24" height="24" fill="#c9a84c"/>
<rect x="314" y="86"  width="24" height="24" fill="#c9a84c"/>
<rect x="362" y="86"  width="24" height="24" fill="#c9a84c"/>
<rect x="314" y="134" width="24" height="24" fill="#c9a84c"/>
<rect x="362" y="134" width="24" height="24" fill="#c9a84c"/>
<rect x="290" y="158" width="24" height="24" fill="#c9a84c"/>
<rect x="386" y="158" width="24" height="24" fill="#c9a84c"/>
<rect x="338" y="110" width="24" height="24" fill="#b8860b"/>
<text class="pcode" x="350" y="122">PO</text>

<text class="note" x="350" y="196">unlimited diagonals</text>
<text class="note" x="350" y="208">blocked by any piece in path</text>
<text class="note" x="350" y="220">permanently color-bound</text>


<!-- ─── RATHAW — grid left=520, center-x=580 ─────────────── -->
<text class="ptitle" x="580" y="46">RATHAW</text>
<text class="psub"   x="580" y="57">both sides</text>
<g fill="#2e2010" stroke="#1a1209" stroke-width="1">
  <rect x="520" y="62"  width="24" height="24"/><rect x="544" y="62"  width="24" height="24"/>
  <rect x="568" y="62"  width="24" height="24"/><rect x="592" y="62"  width="24" height="24"/>
  <rect x="616" y="62"  width="24" height="24"/>
  <rect x="520" y="86"  width="24" height="24"/><rect x="544" y="86"  width="24" height="24"/>
  <rect x="568" y="86"  width="24" height="24"/><rect x="592" y="86"  width="24" height="24"/>
  <rect x="616" y="86"  width="24" height="24"/>
  <rect x="520" y="110" width="24" height="24"/><rect x="544" y="110" width="24" height="24"/>
  <rect x="568" y="110" width="24" height="24"/><!-- piece -->
  <rect x="592" y="110" width="24" height="24"/><rect x="616" y="110" width="24" height="24"/>
  <rect x="520" y="134" width="24" height="24"/><rect x="544" y="134" width="24" height="24"/>
  <rect x="568" y="134" width="24" height="24"/><rect x="592" y="134" width="24" height="24"/>
  <rect x="616" y="134" width="24" height="24"/>
  <rect x="520" y="158" width="24" height="24"/><rect x="544" y="158" width="24" height="24"/>
  <rect x="568" y="158" width="24" height="24"/><rect x="592" y="158" width="24" height="24"/>
  <rect x="616" y="158" width="24" height="24"/>
</g>
<rect x="568" y="62"  width="24" height="24" fill="#c9a84c"/>
<rect x="568" y="86"  width="24" height="24" fill="#c9a84c"/>
<rect x="520" y="110" width="24" height="24" fill="#c9a84c"/>
<rect x="544" y="110" width="24" height="24" fill="#c9a84c"/>
<rect x="592" y="110" width="24" height="24" fill="#c9a84c"/>
<rect x="616" y="110" width="24" height="24" fill="#c9a84c"/>
<rect x="568" y="134" width="24" height="24" fill="#c9a84c"/>
<rect x="568" y="158" width="24" height="24" fill="#c9a84c"/>
<rect x="568" y="110" width="24" height="24" fill="#b8860b"/>
<text class="pcode" x="580" y="122">RT</text>

<text class="note" x="580" y="196">unlimited orthogonals</text>
<text class="note" x="580" y="208">blocked by any piece in path</text>
<text class="note" x="580" y="220">covers both colors</text>


<!-- ════════════ ROW 2 ════════════ -->

<!-- ─── GAWJA — grid left=60, center-x=120 ─────────────── -->
<text class="ptitle" x="120" y="244">GAWJA</text>
<text class="psub"   x="120" y="255">Igto: GAWJA · Mawdige: THASTIN</text>
<g fill="#2e2010" stroke="#1a1209" stroke-width="1">
  <rect x="60"  y="262" width="24" height="24"/><rect x="84"  y="262" width="24" height="24"/>
  <rect x="108" y="262" width="24" height="24"/><rect x="132" y="262" width="24" height="24"/>
  <rect x="156" y="262" width="24" height="24"/>
  <rect x="60"  y="286" width="24" height="24"/><rect x="84"  y="286" width="24" height="24"/>
  <rect x="108" y="286" width="24" height="24"/><rect x="132" y="286" width="24" height="24"/>
  <rect x="156" y="286" width="24" height="24"/>
  <rect x="60"  y="310" width="24" height="24"/><rect x="84"  y="310" width="24" height="24"/>
  <rect x="108" y="310" width="24" height="24"/><!-- piece -->
  <rect x="132" y="310" width="24" height="24"/><rect x="156" y="310" width="24" height="24"/>
  <rect x="60"  y="334" width="24" height="24"/><rect x="84"  y="334" width="24" height="24"/>
  <rect x="108" y="334" width="24" height="24"/><rect x="132" y="334" width="24" height="24"/>
  <rect x="156" y="334" width="24" height="24"/>
  <rect x="60"  y="358" width="24" height="24"/><rect x="84"  y="358" width="24" height="24"/>
  <rect x="108" y="358" width="24" height="24"/><rect x="132" y="358" width="24" height="24"/>
  <rect x="156" y="358" width="24" height="24"/>
</g>
<!-- Up to 2sq any direction, no jumping. 4 far corners NOT reachable. -->
<rect x="84"  y="262" width="24" height="24" fill="#c9a84c"/>
<rect x="108" y="262" width="24" height="24" fill="#c9a84c"/>
<rect x="132" y="262" width="24" height="24" fill="#c9a84c"/>
<rect x="60"  y="286" width="24" height="24" fill="#c9a84c"/>
<rect x="84"  y="286" width="24" height="24" fill="#c9a84c"/>
<rect x="108" y="286" width="24" height="24" fill="#c9a84c"/>
<rect x="132" y="286" width="24" height="24" fill="#c9a84c"/>
<rect x="156" y="286" width="24" height="24" fill="#c9a84c"/>
<rect x="60"  y="310" width="24" height="24" fill="#c9a84c"/>
<rect x="84"  y="310" width="24" height="24" fill="#c9a84c"/>
<rect x="132" y="310" width="24" height="24" fill="#c9a84c"/>
<rect x="156" y="310" width="24" height="24" fill="#c9a84c"/>
<rect x="60"  y="334" width="24" height="24" fill="#c9a84c"/>
<rect x="84"  y="334" width="24" height="24" fill="#c9a84c"/>
<rect x="108" y="334" width="24" height="24" fill="#c9a84c"/>
<rect x="132" y="334" width="24" height="24" fill="#c9a84c"/>
<rect x="156" y="334" width="24" height="24" fill="#c9a84c"/>
<rect x="84"  y="358" width="24" height="24" fill="#c9a84c"/>
<rect x="108" y="358" width="24" height="24" fill="#c9a84c"/>
<rect x="132" y="358" width="24" height="24" fill="#c9a84c"/>
<rect x="108" y="310" width="24" height="24" fill="#b8860b"/>
<text class="pcode" x="120" y="322">GW</text>

<text class="note" x="120" y="394">up to 2 squares any direction</text>
<text class="note" x="120" y="406">cannot jump over pieces</text>
<text class="note" x="120" y="418">cannot cross ranks 4–5 (ever)</text>


<!-- ─── ASHUAW — grid left=290, center-x=350 ─────────────── -->
<text class="ptitle" x="350" y="244">ASHUAW</text>
<text class="psub"   x="350" y="255">both sides</text>
<g fill="#2e2010" stroke="#1a1209" stroke-width="1">
  <rect x="290" y="262" width="24" height="24"/><rect x="314" y="262" width="24" height="24"/>
  <rect x="338" y="262" width="24" height="24"/><rect x="362" y="262" width="24" height="24"/>
  <rect x="386" y="262" width="24" height="24"/>
  <rect x="290" y="286" width="24" height="24"/><rect x="314" y="286" width="24" height="24"/>
  <rect x="338" y="286" width="24" height="24"/><rect x="362" y="286" width="24" height="24"/>
  <rect x="386" y="286" width="24" height="24"/>
  <rect x="290" y="310" width="24" height="24"/><rect x="314" y="310" width="24" height="24"/>
  <rect x="338" y="310" width="24" height="24"/><!-- piece -->
  <rect x="362" y="310" width="24" height="24"/><rect x="386" y="310" width="24" height="24"/>
  <rect x="290" y="334" width="24" height="24"/><rect x="314" y="334" width="24" height="24"/>
  <rect x="338" y="334" width="24" height="24"/><rect x="362" y="334" width="24" height="24"/>
  <rect x="386" y="334" width="24" height="24"/>
  <rect x="290" y="358" width="24" height="24"/><rect x="314" y="358" width="24" height="24"/>
  <rect x="338" y="358" width="24" height="24"/><rect x="362" y="358" width="24" height="24"/>
  <rect x="386" y="358" width="24" height="24"/>
</g>
<!-- 8 L-shape squares from piece at (338,310): -->
<rect x="386" y="286" width="24" height="24" fill="#c9a84c"/>
<rect x="386" y="334" width="24" height="24" fill="#c9a84c"/>
<rect x="290" y="286" width="24" height="24" fill="#c9a84c"/>
<rect x="290" y="334" width="24" height="24" fill="#c9a84c"/>
<rect x="362" y="262" width="24" height="24" fill="#c9a84c"/>
<rect x="362" y="358" width="24" height="24" fill="#c9a84c"/>
<rect x="314" y="262" width="24" height="24" fill="#c9a84c"/>
<rect x="314" y="358" width="24" height="24" fill="#c9a84c"/>
<rect x="338" y="310" width="24" height="24" fill="#b8860b"/>
<text class="pcode" x="350" y="322">AS</text>

<text class="note" x="350" y="394">L-shape: 2 squares + 1 perpendicular</text>
<text class="note" x="350" y="406">can leap over any piece in path</text>
<text class="note" x="350" y="418">ignores the mountain zone entirely</text>


<!-- ─── TISHLE — grid left=520, center-x=580 ─────────────── -->
<text class="ptitle" x="580" y="244">TISHLE</text>
<text class="psub"   x="580" y="255">Igto: STENICA · Mawdige: NPAWTI</text>
<g fill="#2e2010" stroke="#1a1209" stroke-width="1">
  <rect x="520" y="262" width="24" height="24"/><rect x="544" y="262" width="24" height="24"/>
  <rect x="568" y="262" width="24" height="24"/><rect x="592" y="262" width="24" height="24"/>
  <rect x="616" y="262" width="24" height="24"/>
  <rect x="520" y="286" width="24" height="24"/><rect x="544" y="286" width="24" height="24"/>
  <rect x="568" y="286" width="24" height="24"/><rect x="592" y="286" width="24" height="24"/>
  <rect x="616" y="286" width="24" height="24"/>
  <rect x="520" y="310" width="24" height="24"/><rect x="544" y="310" width="24" height="24"/>
  <rect x="568" y="310" width="24" height="24"/><!-- piece -->
  <rect x="592" y="310" width="24" height="24"/><rect x="616" y="310" width="24" height="24"/>
  <rect x="520" y="334" width="24" height="24"/><rect x="544" y="334" width="24" height="24"/>
  <rect x="568" y="334" width="24" height="24"/><rect x="592" y="334" width="24" height="24"/>
  <rect x="616" y="334" width="24" height="24"/>
  <rect x="520" y="358" width="24" height="24"/><rect x="544" y="358" width="24" height="24"/>
  <rect x="568" y="358" width="24" height="24"/><rect x="592" y="358" width="24" height="24"/>
  <rect x="616" y="358" width="24" height="24"/>
</g>
<!-- Forward square: move AND capture = gold -->
<rect x="568" y="286" width="24" height="24" fill="#c9a84c"/>
<!-- Sidestep diagonals: move only (cannot capture) = lighter tint to distinguish -->
<rect x="544" y="286" width="24" height="24" fill="#7a6030"/>
<rect x="592" y="286" width="24" height="24" fill="#7a6030"/>
<!-- piece -->
<rect x="568" y="310" width="24" height="24" fill="#b8860b"/>
<text class="pcode" x="580" y="322">TI</text>

<text class="note" x="580" y="394">gold = move + capture (straight ahead)</text>
<text class="note" x="580" y="406">dim gold = sidestep move only (no capture)</text>
<text class="note" x="580" y="418">promotes on opponent's back 2 ranks</text>


<!-- ═══ DIVIDER ═══ -->
<line x1="40" y1="436" x2="640" y2="436" stroke="#4a2e10" stroke-width="0.8"/>

<!-- ═══ LEGEND ═══ -->
<text style="font-family:Georgia,serif;font-size:10px;font-weight:bold;fill:#c9a84c;text-anchor:middle" x="340" y="456">Legend</text>

<rect x="50"  y="468" width="18" height="18" rx="2" fill="#b8860b"/>
<text class="leg" x="74" y="477">Piece</text>

<rect x="150" y="468" width="18" height="18" rx="2" fill="#c9a84c"/>
<text class="leg" x="174" y="477">Move or capture</text>

<rect x="310" y="468" width="18" height="18" rx="2" fill="#7a6030"/>
<text class="leg" x="334" y="477">Move only (no capture)</text>

<rect x="490" y="468" width="18" height="18" rx="2" fill="#8b6914"/>
<text class="leg" x="514" y="477">RAWDAW only (back-diagonal)</text>

<!-- ═══ FOOTER NOTES ═══ -->
<line x1="40" y1="500" x2="640" y2="500" stroke="#4a2e10" stroke-width="0.5"/>
<text class="note" x="340" y="516">Promoted TISHLE (★): all moves and captures apply in both forward and backward directions.</text>
<text class="note" x="340" y="530">GAWJA restriction is absolute — cannot enter or cross ranks 4–5 under any circumstances.</text>
<text class="note" x="340" y="544">Sliding pieces (POR, RATHAW) are blocked by the first piece encountered in their path.</text>
<text class="note" x="340" y="558">Diagrams show Igto perspective (↑ = toward Mawdige). Mawdige moves in the reverse direction.</text>

<rect x="20" y="8" width="640" height="578" fill="none" stroke="#4a2e10" stroke-width="1" rx="4"/>

</svg>
